<?xml version="1.0" standalone="no"?>
<!DOCTYPE svg PUBLIC "-//W3C//DTD SVG 20010904//EN"
 "http://www.w3.org/TR/2001/REC-SVG-20010904/DTD/svg10.dtd">
<svg version="1.0" xmlns="http://www.w3.org/2000/svg"
 width="185.000000pt" height="195.000000pt" viewBox="0 0 185.000000 195.000000"
 preserveAspectRatio="xMidYMid meet">
<metadata>
Created by potrace 1.16, written by Peter Selinger 2001-2019
</metadata>
<defs>
	<linearGradient id="gold-gradient" x1="0%" y1="0%" x2="0%" y2="100%">
		<stop offset="0%" stop-color="#fffebb"/>
		<stop offset="40%" stop-color="#e0c080"/>
		<stop offset="100%" stop-color="#b88a44"/>
	</linearGradient>
</defs>
<g transform="translate(0.000000,195.000000) scale(0.100000,-0.100000)"
fill="url(#gold-gradient)" stroke="none">
<path d="M453 1222 c-26 -21 -55 -47 -62 -56 -8 -10 -43 -38 -78 -63 -45 -32
-63 -51 -63 -67 0 -31 19 -46 57 -46 33 0 54 14 160 112 28 26 56 48 62 48 6
0 22 -22 35 -49 42 -82 72 -111 116 -111 41 0 56 10 163 107 32 29 62 53 66
53 5 0 27 -31 50 -70 45 -75 63 -90 109 -90 32 0 52 14 154 103 37 32 71 56
76 53 6 -3 24 -31 41 -61 43 -76 64 -95 106 -95 56 0 73 64 25 90 -11 6 -36
38 -56 73 -52 89 -71 107 -114 107 -38 0 -63 -17 -172 -117 -26 -24 -51 -43
-57 -43 -5 0 -26 29 -45 65 -42 74 -67 95 -113 95 -33 0 -46 -9 -161 -112 -30
-27 -58 -48 -62 -48 -5 0 -27 31 -50 70 -61 105 -104 117 -187 52z"/>
<path d="M505 815 c-17 -7 -61 -40 -100 -75 -38 -34 -88 -74 -110 -89 -64 -43
-57 -101 11 -101 28 0 49 14 125 80 50 44 94 80 99 80 4 0 23 -26 40 -57 47
-85 67 -103 111 -103 40 0 56 11 162 107 32 29 62 53 66 53 5 0 27 -31 50 -70
45 -75 63 -90 110 -90 30 0 37 5 175 123 25 21 50 36 56 32 6 -3 19 -24 30
-45 33 -64 78 -110 109 -110 56 0 78 65 31 90 -11 6 -36 38 -56 73 -52 90 -71
107 -115 107 -40 0 -56 -11 -166 -112 -28 -26 -56 -48 -61 -48 -4 0 -19 19
-32 43 -84 153 -120 157 -265 28 -44 -39 -83 -70 -87 -69 -4 2 -27 34 -50 72
-50 81 -84 102 -133 81z"/>
</g>
</svg>
