<?xml version="1.0" standalone="no"?>
<!DOCTYPE svg PUBLIC "-//W3C//DTD SVG 20010904//EN"
 "http://www.w3.org/TR/2001/REC-SVG-20010904/DTD/svg10.dtd">
<svg version="1.0" xmlns="http://www.w3.org/2000/svg"
 width="185.000000pt" height="195.000000pt" viewBox="0 0 185.000000 195.000000"
 preserveAspectRatio="xMidYMid meet">
<metadata>
Created by potrace 1.16, written by Peter Selinger 2001-2019
</metadata>
<defs>
	<linearGradient id="gold-gradient" x1="0%" y1="0%" x2="0%" y2="100%">
		<stop offset="0%" stop-color="#fffebb"/>
		<stop offset="40%" stop-color="#e0c080"/>
		<stop offset="100%" stop-color="#b88a44"/>
	</linearGradient>
</defs>
<g transform="translate(0.000000,195.000000) scale(0.100000,-0.100000)"
fill="url(#gold-gradient)" stroke="none">
<path d="M500 1488 c-93 -47 -125 -168 -44 -168 22 0 40 16 59 54 8 16 21 22
54 24 36 3 48 -1 73 -25 97 -92 168 -368 198 -769 9 -119 13 -141 30 -156 23
-18 57 -13 69 11 5 9 12 70 16 136 21 375 108 711 203 786 48 38 116 21 135
-34 8 -22 30 -31 62 -23 36 9 42 46 14 96 -50 88 -153 111 -244 55 -88 -54
-145 -162 -205 -385 -16 -58 -29 -93 -29 -79 -2 44 -59 235 -93 306 -40 85
-118 167 -173 182 -57 16 -75 14 -125 -11z"/>
</g>
</svg>
