<?xml version="1.0" standalone="no"?>
<!DOCTYPE svg PUBLIC "-//W3C//DTD SVG 20010904//EN"
 "http://www.w3.org/TR/2001/REC-SVG-20010904/DTD/svg10.dtd">
<svg version="1.0" xmlns="http://www.w3.org/2000/svg"
 width="185.000000pt" height="195.000000pt" viewBox="0 0 185.000000 195.000000"
 preserveAspectRatio="xMidYMid meet">
<metadata>
Created by potrace 1.16, written by Peter Selinger 2001-2019
</metadata>
<defs>
	<linearGradient id="gold-gradient" x1="0%" y1="0%" x2="0%" y2="100%">
		<stop offset="0%" stop-color="#fffebb"/>
		<stop offset="40%" stop-color="#e0c080"/>
		<stop offset="100%" stop-color="#b88a44"/>
	</linearGradient>
</defs>
<g transform="translate(0.000000,195.000000) scale(0.100000,-0.100000)"
fill="url(#gold-gradient)" stroke="none">
<path d="M755 1446 c-148 -25 -329 -100 -414 -172 -51 -43 -36 -104 25 -104 9
0 43 17 75 39 126 84 288 131 451 131 96 0 163 -13 259 -51 l55 -22 -50 -27
c-121 -63 -175 -217 -121 -346 7 -18 30 -51 52 -74 108 -120 298 -121 405 -2
53 59 70 105 70 188 0 107 -36 167 -159 265 -86 68 -228 140 -324 163 -93 23
-230 28 -324 12z m605 -298 c61 -32 83 -66 88 -135 3 -48 0 -64 -20 -92 -39
-58 -72 -76 -138 -76 -44 0 -66 5 -87 21 -48 36 -73 82 -73 136 0 78 34 128
107 154 53 19 72 17 123 -8z"/>
<path d="M550 1099 c-101 -16 -166 -63 -210 -153 -30 -60 -32 -72 -28 -133 3
-42 13 -85 27 -110 46 -92 198 -211 342 -269 248 -101 568 -65 808 89 76 50
91 75 67 112 -22 33 -57 32 -109 -4 -128 -87 -261 -130 -427 -138 -124 -6
-206 8 -301 49 l-51 21 30 13 c44 18 110 82 134 128 25 49 34 137 19 191 -36
134 -169 225 -301 204z m106 -125 c64 -30 103 -108 90 -179 -9 -48 -68 -112
-115 -124 -122 -32 -238 81 -202 199 30 100 134 148 227 104z"/>
</g>
</svg>
