<?xml version="1.0" standalone="no"?>
<!DOCTYPE svg PUBLIC "-//W3C//DTD SVG 20010904//EN"
 "http://www.w3.org/TR/2001/REC-SVG-20010904/DTD/svg10.dtd">
<svg version="1.0" xmlns="http://www.w3.org/2000/svg"
 width="185.000000pt" height="195.000000pt" viewBox="0 0 185.000000 195.000000"
 preserveAspectRatio="xMidYMid meet">

<defs>
	<linearGradient id="gold-gradient" x1="0%" y1="0%" x2="0%" y2="100%">
		<stop offset="0%" stop-color="#fffebb"/>
		<stop offset="40%" stop-color="#e0c080"/>
		<stop offset="100%" stop-color="#b88a44"/>
	</linearGradient>
</defs>
<g transform="translate(0.000000,195.000000) scale(0.100000,-0.100000)"
fill="url(#gold-gradient)" stroke="none">
<path d="M352 1598 c-18 -18 -15 -43 9 -64 12 -10 31 -37 43 -59 20 -38 21
-55 24 -365 1 -179 4 -335 7 -346 6 -27 30 -37 56 -24 18 10 19 24 19 294 0
306 5 347 54 410 57 75 186 102 273 58 44 -23 84 -68 102 -115 6 -15 13 -132
15 -260 5 -260 15 -317 70 -406 30 -49 32 -58 23 -85 -6 -17 -33 -54 -61 -81
-56 -56 -96 -72 -208 -84 -87 -9 -111 -37 -68 -76 17 -15 30 -17 86 -11 145
15 246 73 301 173 l34 61 55 -25 c59 -27 150 -40 207 -29 58 11 123 61 151
118 75 149 -29 311 -199 311 -107 0 -171 -50 -216 -166 -25 -66 -33 -64 -64
13 -16 38 -20 85 -25 300 -5 238 -7 258 -28 297 -35 67 -78 110 -144 143 -113
56 -243 37 -342 -50 -31 -27 -39 -31 -47 -19 -5 8 -9 17 -9 21 0 4 -14 23 -31
43 -32 36 -65 45 -87 23z m1052 -702 c67 -28 97 -110 64 -181 -30 -66 -148
-88 -244 -46 -44 20 -46 22 -40 53 11 56 69 162 96 175 33 17 83 16 124 -1z"/>
</g>
</svg>
