<?xml version="1.0" standalone="no"?>
<!DOCTYPE svg PUBLIC "-//W3C//DTD SVG 20010904//EN"
 "http://www.w3.org/TR/2001/REC-SVG-20010904/DTD/svg10.dtd">
<svg version="1.0" xmlns="http://www.w3.org/2000/svg"
 width="185.000000pt" height="195.000000pt" viewBox="0 0 185.000000 195.000000"
 preserveAspectRatio="xMidYMid meet">
<metadata>
Created by potrace 1.16, written by Peter Selinger 2001-2019
</metadata>
<defs>
	<linearGradient id="gold-gradient" x1="0%" y1="0%" x2="0%" y2="100%">
		<stop offset="0%" stop-color="#fffebb"/>
		<stop offset="40%" stop-color="#e0c080"/>
		<stop offset="100%" stop-color="#b88a44"/>
	</linearGradient>
</defs>
<g transform="translate(0.000000,195.000000) scale(0.100000,-0.100000)"
fill="url(#gold-gradient)" stroke="none">
<path d="M446 1444 c-24 -23 -19 -49 17 -97 49 -65 96 -177 118 -279 29 -145
32 -138 -54 -138 -80 0 -97 -9 -97 -52 0 -37 24 -48 104 -48 65 0 66 0 66 -27
0 -56 -38 -210 -67 -273 -16 -36 -47 -87 -67 -113 -45 -59 -46 -96 -4 -111 23
-8 32 -6 54 15 84 78 184 334 184 470 l0 39 129 0 128 0 6 -57 c11 -98 45
-214 92 -308 77 -155 132 -200 171 -140 16 25 15 27 -23 83 -22 31 -50 76 -62
99 -27 54 -67 193 -75 266 l-7 57 75 0 c70 0 77 2 92 25 15 23 15 27 0 50 -15
23 -23 25 -91 25 -41 0 -75 4 -75 9 0 4 7 48 15 96 19 110 63 222 119 304 43
64 48 89 20 112 -28 23 -63 0 -109 -70 -77 -118 -125 -253 -141 -391 l-7 -60
-127 0 -127 0 -6 64 c-9 101 -34 182 -87 291 -75 154 -123 201 -164 159z"/>
</g>
</svg>
