<?xml version="1.0" standalone="no"?>
<!DOCTYPE svg PUBLIC "-//W3C//DTD SVG 20010904//EN"
 "http://www.w3.org/TR/2001/REC-SVG-20010904/DTD/svg10.dtd">
<svg version="1.0" xmlns="http://www.w3.org/2000/svg"
 width="185.000000pt" height="195.000000pt" viewBox="0 0 185.000000 195.000000"
 preserveAspectRatio="xMidYMid meet">
<metadata>
Created by potrace 1.16, written by Peter Selinger 2001-2019
</metadata>
<defs>
	<linearGradient id="gold-gradient" x1="0%" y1="0%" x2="0%" y2="100%">
		<stop offset="0%" stop-color="#fffebb"/>
		<stop offset="40%" stop-color="#e0c080"/>
		<stop offset="100%" stop-color="#b88a44"/>
	</linearGradient>
</defs>
<g transform="translate(0.000000,195.000000) scale(0.100000,-0.100000)"
fill="url(#gold-gradient)" stroke="none">
<path d="M300 1490 c-27 -27 -25 -43 6 -77 58 -61 59 -65 64 -483 l5 -384 27
-15 c24 -14 28 -14 47 3 21 19 21 28 21 400 0 352 2 383 18 409 30 44 53 56
109 57 44 0 58 -5 85 -29 l33 -29 5 -397 c5 -378 6 -397 24 -411 26 -19 40
-18 59 4 14 15 16 65 19 398 3 343 5 383 21 407 51 77 162 80 211 4 12 -18 15
-90 18 -389 l3 -368 -60 -25 c-98 -42 -110 -50 -113 -73 -9 -58 50 -67 143
-24 l60 28 26 -40 c16 -26 45 -52 80 -71 47 -25 65 -29 134 -30 77 0 80 1 89
27 15 43 -11 64 -89 71 -78 8 -120 27 -141 68 -16 31 -16 31 21 61 51 43 128
156 164 241 35 85 55 191 48 253 -6 58 -47 119 -97 144 -42 21 -109 26 -139
10 -16 -8 -19 -3 -24 49 -11 131 -106 225 -227 225 -58 0 -120 -25 -153 -62
l-19 -21 -42 33 c-90 69 -194 69 -273 1 l-39 -33 -20 30 c-16 25 -61 58 -79
58 -3 0 -14 -9 -25 -20z m1015 -375 c19 -18 25 -35 25 -67 0 -96 -64 -258
-135 -343 l-25 -30 0 212 0 212 26 20 c36 28 79 27 109 -4z"/>
</g>
</svg>
